<svg id="Capa_1" data-name="Capa 1" xmlns="http://www.w3.org/2000/svg" viewBox="0 0 80.13 80.13"><defs><style>.cls-1{fill:none;stroke:#fff;stroke-miterlimit:10;stroke-width:2px;}.cls-2,.cls-3{fill:#fff;}.cls-3{font-size:12px;font-family:Montserrat-Medium, Montserrat;font-weight:500;}</style></defs><g id="Logo"><circle id="borde" class="cls-1" cx="40.06" cy="40.06" r="39.06"/><path id="trazado" class="cls-2" d="M197.89,80.4c.43-1.35,2.58-1.76,4.21-1.83.58-.34,1.15-.69,1.71-1.06l-2.25-2.05c-2.61-3.32-3.56-6.26-2.81-8.74,1.1-3.64,5.54-5.14,5.59-5.16a.57.57,0,0,0-.36-1.08c-.2.06-5,1.69-6.32,5.9a7.21,7.21,0,0,0-.25,2.92,3.12,3.12,0,0,1-1.08-1.52,5.68,5.68,0,0,0,1.42-4.9.58.58,0,0,0-1.12.27,4.56,4.56,0,0,1-1.32,4.05c-1.79,1.74-4,8.68-4.82,11.58a1.46,1.46,0,0,1-.85.93,8,8,0,0,1-3.56.48,1,1,0,0,1-.86-.63.58.58,0,0,1,0-.5,3.79,3.79,0,0,1,2.35-1,1.76,1.76,0,0,0,1.26-.94A22.26,22.26,0,0,0,191,64.61a24.46,24.46,0,0,0-1.32-5.8l0,0c-1.16-2.41-3.91-9.17-2.69-11.55a10.71,10.71,0,0,0,1.28-6v0a.58.58,0,0,0-.69-.44c-1.14.25-4.54.63-5.09-.86-.41-1.12-.18-1.45.17-1.94a2.83,2.83,0,0,0,.63-1.6,6.32,6.32,0,0,1,1.4-2.84,8.93,8.93,0,0,0,.6-.91c.2-.36.31-1-.43-3.37-.15-.47-.31-.92-.45-1.3a8.24,8.24,0,0,1,1.07.43,4.94,4.94,0,0,1,2.7,2.82.08.08,0,0,0,0,.05.57.57,0,0,0,.75.3.6.6,0,0,0,.31-.73,5.58,5.58,0,0,0-1.53-2.3,6.82,6.82,0,0,0,.36-1.67c1.22.9,2.79,2.32,2.71,3.43a.58.58,0,0,0,.48.6c.18,0,4.51.88,4.18,7-.21,3.81.7,8.64,6.24,10.06l.39.08c2.46.5,12.59,3.22,15.15,14.43a39.11,39.11,0,1,0-74.09-17.51h0l24.67,9,8.71-9.38a1.12,1.12,0,0,1,1.3-.25,1.14,1.14,0,0,1,.62,1.16L178,48.2l1.7-.74a1.11,1.11,0,0,1,1.2.2,1.13,1.13,0,0,1,.29,1.18l-1,2.84a4.15,4.15,0,0,1,1.44,4.16l3.61,3.75a1.13,1.13,0,0,1,.3.84,1.09,1.09,0,0,1-.4.79,9,9,0,0,1-5.69,2.09,8.44,8.44,0,0,1-5.61-2.15l-.56,1,2.63,3.44,6.77.83a1.14,1.14,0,0,1,.77.45,1.1,1.1,0,0,1,.19.86l-.12.65a1.13,1.13,0,0,1-1.09.9h-.12l-8.82-.89a1.15,1.15,0,0,1-.73-.37l-2.18-2.51-.51.43,3,6.16,6.64.81a1.12,1.12,0,0,1,.76.45,1.1,1.1,0,0,1,.19.86l-.12.65a1.11,1.11,0,0,1-1.09.9h-.11l-8.83-.89a1.1,1.1,0,0,1-.72-.37l-5.24-6a13.89,13.89,0,0,1-2.76.27,18.3,18.3,0,0,1-8.36-2.21l-5.77-3.3A39.15,39.15,0,0,0,197.9,80.72.44.44,0,0,1,197.89,80.4Z" transform="translate(-142.11 -4.86)"/><path id="corazon" class="cls-2" d="M168.85,44.56a1.8,1.8,0,0,0-1.07.45,2.42,2.42,0,0,0-.58.81,2.6,2.6,0,0,0-.7-.72,1.7,1.7,0,0,0-1.11-.3,2,2,0,0,0-1.82,2.26c.09,1.31,1.2,2.14,2.89,3.38l.95.71a.21.21,0,0,0,.15.05.21.21,0,0,0,.15-.07l.85-.83c1.5-1.47,2.49-2.44,2.4-3.75A2,2,0,0,0,168.85,44.56Z" transform="translate(-142.11 -4.86)"/><text class="cls-3" transform="translate(14.48 19.04)">Puppies</text></g></svg>